HIERARCHY
ROOT Hips
{
  OFFSET 51.8454 91.5981 3.71105
  CHANNELS 6 Xposition Yposition Zposition Zrotation Xrotation Yrotation
  JOINT spine
  {
    OFFSET 0 6.84637 0.3937
    CHANNELS 3 Zrotation Xrotation Yrotation
    JOINT spine1
    {
      OFFSET 0 9.49621 0
      CHANNELS 3 Zrotation Xrotation Yrotation
      JOINT spine2
      {
        OFFSET 0 9.09909 0
        CHANNELS 3 Zrotation Xrotation Yrotation
        JOINT Neck
        {
          OFFSET 0 23.3612 1.11378
          CHANNELS 3 Zrotation Xrotation Yrotation
          JOINT Head
          {
            OFFSET 0 7.05802 0
            CHANNELS 3 Zrotation Xrotation Yrotation
            End Site
            {
              OFFSET 0 17.0844 -5.63419
            }
          }
        }
        JOINT RightShoulder
        {
          OFFSET -3.83136 9.82631 -0.533491
          CHANNELS 3 Zrotation Xrotation Yrotation
          JOINT RightArm
          {
            OFFSET 0 12.8881 0
            CHANNELS 3 Zrotation Xrotation Yrotation
            JOINT RightArmRoll
            {
              OFFSET 0 6.50617 0
              CHANNELS 3 Zrotation Xrotation Yrotation
              JOINT RightForeArm
              {
                OFFSET 0 18.9501 0
                CHANNELS 3 Zrotation Xrotation Yrotation
                JOINT RightForeArmRoll
                {
                  OFFSET 0 7.30092 0
                  CHANNELS 3 Zrotation Xrotation Yrotation
                  JOINT RightHand
                  {
                    OFFSET 0 14.6514 0
                    CHANNELS 3 Zrotation Xrotation Yrotation
                    End Site
                    {
                      OFFSET 0 0 0
                    }
                  }
                }
              }
            }
          }
        }
        JOINT LeftShoulder
        {
          OFFSET 3.83136 9.82631 -0.533491
          CHANNELS 3 Zrotation Xrotation Yrotation
          JOINT LeftArm
          {
            OFFSET 0 12.8881 0
            CHANNELS 3 Zrotation Xrotation Yrotation
            JOINT LeftArmRoll
            {
              OFFSET 0 6.50617 0
              CHANNELS 3 Zrotation Xrotation Yrotation
              JOINT LeftForeArm
              {
                OFFSET 0 18.9501 0
                CHANNELS 3 Zrotation Xrotation Yrotation
                JOINT LeftForeArmRoll
                {
                  OFFSET 0 7.30093 0
                  CHANNELS 3 Zrotation Xrotation Yrotation
                  JOINT LeftHand
                  {
                    OFFSET 0 14.6514 0
                    CHANNELS 3 Zrotation Xrotation Yrotation
                    End Site
                    {
                      OFFSET 0 0 0
                    }
                  }
                }
              }
            }
          }
        }
      }
    }
  }
  JOINT RightUpLeg
  {
    OFFSET -6.06837 -1.11278 -0.933477
    CHANNELS 3 Zrotation Xrotation Yrotation
    JOINT RightUpLegRoll
    {
      OFFSET 0 17.1796 0
      CHANNELS 3 Zrotation Xrotation Yrotation
      JOINT RightLeg
      {
        OFFSET 0 -21.2743 0
        CHANNELS 3 Zrotation Xrotation Yrotation
        JOINT RightLegRoll
        {
          OFFSET 0 21.3439 0
          CHANNELS 3 Zrotation Xrotation Yrotation
          JOINT RightFoot
          {
            OFFSET 0 17.7652 0
            CHANNELS 3 Zrotation Xrotation Yrotation
            JOINT RightToeBase
            {
              OFFSET 0 14.8508 0
              CHANNELS 3 Zrotation Xrotation Yrotation
              End Site
              {
                OFFSET 0.0062947 7.19214 -0.829005
              }
            }
          }
        }
      }
    }
  }
  JOINT LeftUpLeg
  {
    OFFSET 6.06837 -1.11278 -0.933477
    CHANNELS 3 Zrotation Xrotation Yrotation
    JOINT LeftUpLegRoll
    {
      OFFSET 0 17.1797 0
      CHANNELS 3 Zrotation Xrotation Yrotation
      JOINT LeftLeg
      {
        OFFSET 0 21.2742 0
        CHANNELS 3 Zrotation Xrotation Yrotation
        JOINT LeftLegRoll
        {
          OFFSET 0 21.5412 0
          CHANNELS 3 Zrotation Xrotation Yrotation
          JOINT LeftFoot
          {
            OFFSET 0 17.5679 0
            CHANNELS 3 Zrotation Xrotation Yrotation
            JOINT LeftToeBase
            {
              OFFSET 0 14.8508 0
              CHANNELS 3 Zrotation Xrotation Yrotation
              End Site
              {
                OFFSET -0.0282102 7.19213 -0.829005
              }
            }
          }
        }
      }
    }
  }
}
MOTION
Frames: 10
Frame Time: 0.00208333
53.5688 91.4838 3.72454 -4.54441 4.80665 4.17509 -1.8191 -3.99886 0.43064 -3.58778 -4.01251 0.967115 -3.59642 -2.36942 1.03021 14.3888 28.5104 -7.0372 -1.52818 1.22451 -0.970615 9.6827 -19.2463 -20.3415 -41.5349 48.7169 140.671 1.97369e-006 2.10026e-006 2.04642e-006 -6.98756 34.1518 3.30757 -6.67389e-006 5.60565e-006 -2.99999 8.02919 -4.95145 0.697663 -76.8317 -0.942086 2.42837 -87.3913 11.9775 -27.7865 -3.01987e-006 -5.51629e-007 3.26219e-006 -9.65316 0.760899 0.303202 1.728e-006 -2.51929e-007 3.00309 -8.02891 -4.95145 -0.697702 -179.078 7.09161 -2.98745 -180 7.01586e-015 179.107 178.894 4.48687 179.91 8.75559e-007 3.14676e-006 0.040892 -18.7051 67.9969 19.5383 8.13649 25.2327 -3.48774 -168.491 8.39646 -3.64981 4.54188e-006 -4.6773e-006 -0.916884 -1.85723 -7.36745 0.0789256 -1.12726e-006 -1.61772e-006 -0.124653 19.5169 69.0667 -20.4551 -8.13649 25.2327 3.48774 
53.5619 91.4831 3.72044 -4.54033 4.78545 4.19307 -1.81806 -3.99621 0.431637 -3.5869 -4.00725 0.969301 -3.59559 -2.36417 1.03306 14.1513 28.5268 -6.91812 -1.38871 1.2325 -0.941194 9.63309 -19.1962 -20.2752 -41.802 48.7821 140.854 1.97369e-006 2.10026e-006 2.04642e-006 -6.92268 34.2433 3.28604 -6.67389e-006 5.60565e-006 -2.99999 8.02919 -4.95145 0.697663 -76.9382 -0.973819 2.45189 -87.3168 11.9587 -27.7254 -3.01987e-006 -5.51629e-007 3.26219e-006 -9.72906 0.888548 0.317237 1.728e-006 -2.51929e-007 3.00263 -8.02891 -4.95145 -0.697702 -179.08 7.07057 -2.98595 -180 7.01586e-015 179.106 178.897 4.48919 179.91 8.75559e-007 3.14676e-006 0.0408786 -18.7039 67.9956 19.537 8.13649 25.2327 -3.48774 -168.494 8.37934 -3.64765 4.54188e-006 -4.6773e-006 -0.917341 -1.85655 -7.36208 0.078449 -1.12726e-006 -1.61772e-006 -0.124267 19.5155 69.0651 -20.4537 -8.13649 25.2327 3.48774 
53.5861 91.4858 3.72362 -4.53633 4.76442 4.21117 -1.81691 -3.99352 0.432624 -3.58587 -4.0019 0.971473 -3.5946 -2.35882 1.03588 13.917 28.5395 -6.80006 -1.25362 1.24232 -0.912132 9.58777 -19.1475 -20.2097 -42.0724 48.8454 141.037 1.97369e-006 2.10026e-006 2.04642e-006 -6.85797 34.3305 3.26373 -6.67389e-006 5.60565e-006 -2.99999 8.02919 -4.95145 0.697663 -77.0434 -1.00466 2.47482 -87.244 11.9397 -27.6645 -3.01987e-006 -5.51629e-007 3.26219e-006 -9.8045 1.01702 0.331569 1.728e-006 -2.51929e-007 3.00221 -8.02891 -4.95145 -0.697702 -179.082 7.04974 -2.9844 -180 7.01586e-015 179.106 178.901 4.49157 179.91 8.75559e-007 3.14676e-006 0.0408652 -18.7027 67.9944 19.5358 8.13649 25.2327 -3.48774 -168.497 8.36257 -3.64545 4.54188e-006 -4.6773e-006 -0.917773 -1.85582 -7.35698 0.0779864 -1.12726e-006 -1.61772e-006 -0.1239 19.5143 69.0636 -20.4524 -8.13649 25.2327 3.48774 
53.5834 91.4865 3.72656 -4.5323 4.74365 4.22931 -1.81573 -3.99079 0.4336 -3.58474 -3.99648 0.973623 -3.59351 -2.3534 1.03864 13.6869 28.5484 -6.6835 -1.12378 1.25424 -0.88361 9.54572 -19.1001 -20.1454 -42.3443 48.9073 141.22 1.97369e-006 2.10026e-006 2.04642e-006 -6.79365 34.4137 3.24084 -6.67389e-006 5.60565e-006 -2.99999 8.02919 -4.95145 0.697663 -77.1466 -1.03488 2.49724 -87.1734 11.9207 -27.6049 -3.01987e-006 -5.51629e-007 3.26219e-006 -9.87845 1.14417 0.345919 1.728e-006 -2.51929e-007 3.00182 -8.02891 -4.95145 -0.697702 -179.084 7.02925 -2.98269 -180 7.01586e-015 179.106 178.904 4.494 179.909 8.75559e-007 3.14676e-006 0.0408518 -18.7014 67.9931 19.5346 8.13649 25.2327 -3.48774 -168.5 8.34608 -3.64313 4.54188e-006 -4.6773e-006 -0.918182 -1.85505 -7.35193 0.0775399 -1.12726e-006 -1.61772e-006 -0.123549 19.5131 69.0622 -20.4512 -8.13649 25.2327 3.48774 
53.5635 91.4887 3.72387 -4.52816 4.72324 4.24742 -1.81455 -3.98804 0.434562 -3.58357 -3.99103 0.975743 -3.59238 -2.34794 1.04132 13.4618 28.553 -6.5689 -1.00003 1.26855 -0.855808 9.50592 -19.054 -20.0825 -42.6163 48.9683 141.402 1.97369e-006 2.10026e-006 2.04642e-006 -6.72997 34.4933 3.21757 -6.67389e-006 5.60565e-006 -2.99999 8.02919 -4.95145 0.697663 -77.2473 -1.06477 2.51921 -87.1053 11.9019 -27.5475 -3.01987e-006 -5.51629e-007 3.26219e-006 -9.94985 1.26784 0.360009 1.728e-006 -2.51929e-007 3.00146 -8.02891 -4.95145 -0.697702 -179.086 7.00924 -2.98074 -180 7.01586e-015 179.106 178.908 4.49652 179.909 8.75559e-007 3.14676e-006 0.0408384 -18.7002 67.9918 19.5333 8.13649 25.2327 -3.48774 -168.504 8.32981 -3.64061 4.54188e-006 -4.6773e-006 -0.918571 -1.85427 -7.34672 0.077112 -1.12726e-006 -1.61772e-006 -0.123212 19.5119 69.0606 -20.4498 -8.13649 25.2327 3.48774 
53.585 91.4897 3.71794 -4.52379 4.70329 4.26542 -1.81342 -3.98529 0.435508 -3.58242 -3.98556 0.977824 -3.59126 -2.34247 1.0439 13.2423 28.5531 -6.45671 -0.88323 1.2855 -0.828907 9.46735 -19.0092 -20.0211 -42.8867 49.0287 141.583 1.97369e-006 2.10026e-006 2.04642e-006 -6.66716 34.5698 3.19412 -6.67389e-006 5.60565e-006 -2.99999 8.02919 -4.95145 0.697663 -77.3448 -1.09462 2.54082 -87.0401 11.8836 -27.4933 -3.01987e-006 -5.51629e-007 3.26219e-006 -10.0176 1.38588 0.373559 1.728e-006 -2.51929e-007 3.00112 -8.02891 -4.95145 -0.697702 -179.089 6.98983 -2.97845 -180 7.01585e-015 179.106 178.911 4.49916 179.909 8.75559e-007 3.14676e-006 0.0408251 -18.699 67.9905 19.5321 8.13649 25.2327 -3.48774 -168.508 8.31367 -3.63783 4.54188e-006 -4.6773e-006 -0.918944 -1.8535 -7.34114 0.0767048 -1.12726e-006 -1.61772e-006 -0.122886 19.5104 69.0589 -20.4483 -8.13649 25.2327 3.48774 
53.5772 91.5002 3.71884 -4.51911 4.68389 4.28325 -1.8124 -3.98255 0.436436 -3.58135 -3.9801 0.979858 -3.59023 -2.33701 1.04635 13.0295 28.5484 -6.34741 -0.774242 1.3054 -0.803087 9.429 -18.9656 -19.9617 -43.1539 49.089 141.762 1.97369e-006 2.10026e-006 2.04642e-006 -6.60548 34.6436 3.1707 -6.67389e-006 5.60565e-006 -2.99999 8.02919 -4.95145 0.697663 -77.4384 -1.12469 2.56213 -86.9783 11.8661 -27.4436 -3.01987e-006 -5.51629e-007 3.26219e-006 -10.0807 1.49615 0.386291 1.728e-006 -2.51929e-007 3.00082 -8.02891 -4.95145 -0.697702 -179.093 6.97118 -2.97572 -180 7.01585e-015 179.106 178.913 4.50193 179.909 8.75559e-007 3.14676e-006 0.0408118 -18.6977 67.9892 19.5308 8.13649 25.2327 -3.48774 -168.512 8.29759 -3.6347 4.54188e-006 -4.6773e-006 -0.919303 -1.85276 -7.33497 0.0763206 -1.12726e-006 -1.61772e-006 -0.122568 19.5087 69.0568 -20.4464 -8.13649 25.2327 3.48774 
53.5788 91.4991 3.71213 -4.51401 4.66515 4.30081 -1.81154 -3.97983 0.437344 -3.58042 -3.9747 0.981837 -3.58934 -2.33161 1.04864 12.824 28.5384 -6.24146 -0.673919 1.3285 -0.778529 9.38984 -18.923 -19.9043 -43.4163 49.1496 141.939 1.97369e-006 2.10026e-006 2.04642e-006 -6.54516 34.7151 3.1475 -6.67389e-006 5.60565e-006 -2.99999 8.02919 -4.95145 0.697663 -77.5276 -1.15527 2.58322 -86.9203 11.8496 -27.3992 -3.01987e-006 -5.51629e-007 3.26219e-006 -10.1381 1.59649 0.397924 1.728e-006 -2.51929e-007 3.00054 -8.02891 -4.95145 -0.697702 -179.097 6.9534 -2.97247 -180 7.01585e-015 179.106 178.916 4.50486 179.909 8.75559e-007 3.14676e-006 0.0407985 -18.6965 67.9879 19.5295 8.13649 25.2327 -3.48774 -168.518 8.2815 -3.63116 4.54188e-006 -4.6773e-006 -0.919653 -1.85208 -7.328 0.0759617 -1.12726e-006 -1.61772e-006 -0.122256 19.5065 69.0543 -20.4441 -8.13649 25.2327 3.48774 
53.5679 91.4871 3.7108 -4.5084 4.64715 4.31805 -1.81088 -3.97715 0.438229 -3.57969 -3.96936 0.983753 -3.58864 -2.32627 1.05076 12.6266 28.5229 -6.13932 -0.583119 1.35508 -0.755413 9.34886 -18.8816 -19.8493 -43.6724 49.2111 142.114 1.97369e-006 2.10026e-006 2.04642e-006 -6.48644 34.7846 3.12473 -6.67389e-006 5.60565e-006 -2.99999 8.02919 -4.95145 0.697663 -77.6117 -1.18665 2.60415 -86.8664 11.8344 -27.3613 -3.01987e-006 -5.51629e-007 3.26219e-006 -10.1886 1.68476 0.408179 1.728e-006 -2.51929e-007 3.00028 -8.02891 -4.95145 -0.697702 -179.102 6.93663 -2.96859 -180 7.01585e-015 179.105 178.918 4.50799 179.909 8.75559e-007 3.14676e-006 0.0407852 -18.6952 67.9866 19.5283 8.13649 25.2327 -3.48774 -168.524 8.26533 -3.62712 4.54188e-006 -4.6773e-006 -0.919995 -1.85146 -7.32002 0.0756304 -1.12726e-006 -1.61772e-006 -0.121948 19.5038 69.0512 -20.4413 -8.13649 25.2327 3.48774 
53.5719 91.4916 3.70171 -4.50218 4.63001 4.33488 -1.81048 -3.97452 0.43909 -3.57922 -3.96413 0.985596 -3.58821 -2.32104 1.05267 12.4383 28.5016 -6.04147 -0.502698 1.38543 -0.733921 9.30504 -18.8411 -19.797 -43.9206 49.2737 142.286 1.97369e-006 2.10026e-006 2.04642e-006 -6.42956 34.8527 3.10259 -6.67389e-006 5.60565e-006 -2.99999 8.02919 -4.95145 0.697663 -77.6901 -1.2191 2.62501 -86.8171 11.8207 -27.3308 -3.01987e-006 -5.51629e-007 3.26219e-006 -10.2312 1.75881 0.416776 1.728e-006 -2.51929e-007 3.00005 -8.02891 -4.95145 -0.697702 -179.109 6.92101 -2.96399 -180 7.01585e-015 179.105 178.92 4.51135 179.909 8.75559e-007 3.14676e-006 0.040772 -18.694 67.9853 19.527 8.13649 25.2327 -3.48774 -168.531 8.249 -3.62253 4.54188e-006 -4.6773e-006 -0.920334 -1.85094 -7.31081 0.075329 -1.12726e-006 -1.61772e-006 -0.121641 19.5005 69.0474 -20.4377 -8.13649 25.2327 3.48774 
